<?xml version="1.0" encoding="UTF-8" standalone="no"?>
<svg
   viewBox="0 0 128.17932 12.423449"
   version="1.1"
   id="svg3"
   xmlns="http://www.w3.org/2000/svg"
   xmlns:svg="http://www.w3.org/2000/svg">
  <defs
     id="defs3" />
  <g
     id="g4"
     transform="translate(-5.7562751,0.26768474)">
    <path
       d="m 133.83629,9.4208962 c -0.44318,1.7775968 -2.24359,2.8594178 -4.02139,2.4161338 -1.77708,-0.443181 -2.8589,-2.2436936 -2.41551,-4.0211864 0.44297,-1.777804 2.24338,-2.8597291 4.02066,-2.4165483 1.7777,0.4431807 2.85942,2.2439006 2.41624,4.0216009 z"
       fill="#f7931a"
       id="path1" />
    <path
       d="m 132.08026,8.1454813 c 0.066,-0.4415217 -0.27012,-0.6788733 -0.72978,-0.8372114 l 0.14911,-0.598097 -0.36407,-0.090731 -0.14517,0.5823357 c -0.0957,-0.023849 -0.19401,-0.04635 -0.29169,-0.068644 l 0.14621,-0.5861724 -0.36385,-0.090731 -0.14922,0.5978897 c -0.0792,-0.018042 -0.15699,-0.035878 -0.23248,-0.054646 l 4.2e-4,-0.00187 -0.50208,-0.125364 -0.0968,0.388846 c 0,0 0.27012,0.061904 0.26442,0.065741 0.14745,0.036811 0.1741,0.1343852 0.16964,0.2117396 -0.40855,1.6384415 0,0 -0.40855,1.6384415 -0.018,0.044795 -0.0638,0.1119877 -0.16684,0.086479 0.004,0.00529 -0.26462,-0.066052 -0.26462,-0.066052 l -0.18074,0.4167392 0.47377,0.1181055 c 0.0881,0.022087 0.17452,0.04521 0.25954,0.066985 l -0.15066,0.6049413 0.36365,0.09073 0.14921,-0.5985126 c 0.0993,0.02696 0.19577,0.051846 0.29013,0.075281 l -0.14869,0.5957126 0.36406,0.09073 0.15067,-0.6038 c 0.6208,0.117484 1.08762,0.0701 1.28412,-0.4913975 0.15834,-0.4520983 -0.008,-0.7128844 -0.33451,-0.8829397 0.23787,-0.054853 0.41705,-0.2113248 0.46485,-0.5345336 z m -0.83182,1.1664343 c -0.1125,0.4520983 -0.87371,0.2076956 -1.1205,0.1464135 l 0.19992,-0.8014376 c 0.24679,0.061593 1.03817,0.1835353 0.92058,0.6550241 z m 0.11261,-1.1729669 c -0.10265,0.4112435 -0.73621,0.2023036 -0.94173,0.1510796 l 0.18125,-0.7268828 c 0.20552,0.051224 0.86739,0.1468282 0.76048,0.5758032 z"
       fill="#ffffff"
       id="path2" />
  </g>
  <g
     id="text3"
     style="font-size:16.2667px;letter-spacing:0px;white-space:pre;inline-size:167.35;fill:#000000"
     transform="translate(-17.309429,-7.219058)"
     aria-label="BRAUNSCHWEIG">
    <path
       style="font-family:'THE BOLD FONT (FREE VERSION)';-inkscape-font-specification:'THE BOLD FONT (FREE VERSION)';letter-spacing:0.3px;fill:#000000"
       d="m 23.734776,12.224892 c 0.276533,-0.439201 0.406667,-0.943468 0.406667,-1.496536 0,-0.439201 -0.0976,-0.8621354 -0.276534,-1.2850696 C 23.669709,9.0528856 23.409442,8.7112849 23.067841,8.4022175 22.742507,8.1256836 22.352106,7.8816831 21.896638,7.7027494 21.473704,7.5238157 21.00197,7.4424822 20.481435,7.4424822 L 17.309429,7.4262155 V 19.414774 h 3.49734 c 0.618135,0 1.203736,-0.113867 1.773071,-0.325334 0.569334,-0.211467 1.057335,-0.504268 1.464003,-0.862135 0.406667,-0.374134 0.732001,-0.813335 0.976002,-1.301336 0.244,-0.471735 0.357867,-1.008536 0.357867,-1.57787 0,-0.634402 -0.1464,-1.220003 -0.439201,-1.756804 -0.2928,-0.536801 -0.699468,-0.992269 -1.203735,-1.366403 z m -3.676275,-0.943468 v -1.089869 h 0.422934 c 0.276534,0 0.488001,0.06507 0.666935,0.178933 0.162667,0.130134 0.244001,0.244001 0.244001,0.357868 0,0.130133 -0.08133,0.244 -0.244001,0.357867 -0.162667,0.113867 -0.374134,0.178934 -0.650668,0.195201 z m 0.748268,5.368011 h -0.748268 v -2.618939 h 0.422934 0.03253 0.2928 c 0.244001,0 0.471735,0.03253 0.699469,0.0976 0.211467,0.08133 0.406667,0.178934 0.585601,0.292801 0.1464,0.113867 0.276534,0.244 0.390401,0.422934 0.0976,0.162667 0.1464,0.325334 0.1464,0.504268 0,0.178933 -0.0488,0.3416 -0.1464,0.488001 -0.113867,0.178933 -0.244001,0.309067 -0.390401,0.422934 -0.195201,0.113867 -0.390401,0.211467 -0.585601,0.276534 -0.211468,0.08133 -0.455468,0.113867 -0.699469,0.113867 z"
       id="path33" />
    <path
       style="font-family:'THE BOLD FONT (FREE VERSION)';-inkscape-font-specification:'THE BOLD FONT (FREE VERSION)';letter-spacing:0.3px;word-spacing:1px;fill:#000000"
       d="m 29.890804,16.324101 1.91947,3.090673 h 3.237074 l -2.635206,-4.261876 c 0.488001,-0.406667 0.862135,-0.878401 1.138669,-1.431469 0.276534,-0.536801 0.406668,-1.122403 0.406668,-1.773071 0,-0.585601 -0.130134,-1.154935 -0.374134,-1.708003 C 33.339344,9.736087 32.981477,9.2643527 32.526009,8.8414185 32.086808,8.4510176 31.566274,8.1256836 30.948139,7.8816831 30.378805,7.6539493 29.728137,7.5238157 29.028668,7.507549 h -2.749072 v 11.907225 h 2.749072 v -3.00934 c 0.0488,-0.01627 0.130134,-0.01627 0.227734,-0.01627 0.0976,0 0.162667,0 0.211467,-0.01627 0.0488,-0.01627 0.113867,-0.01627 0.211467,-0.03253 0.08133,-0.01627 0.162667,-0.01627 0.211468,-0.01627 z m -0.862136,-2.684006 v -3.367207 c 0.276534,0.01627 0.569335,0.06507 0.845869,0.1464 0.227734,0.08133 0.455467,0.211468 0.699468,0.374135 0.1952,0.1464 0.357867,0.325334 0.471734,0.520534 0.113867,0.178934 0.162667,0.390401 0.162667,0.634401 0,0.244001 -0.0488,0.455468 -0.162667,0.634402 -0.113867,0.211467 -0.260267,0.3904 -0.471734,0.536801 -0.244001,0.178933 -0.488001,0.2928 -0.699468,0.357867 -0.260267,0.08133 -0.536801,0.1464 -0.845869,0.162667 z"
       id="path34" />
    <path
       style="font-family:'THE BOLD FONT (FREE VERSION)';-inkscape-font-specification:'THE BOLD FONT (FREE VERSION)';letter-spacing:-0.2px;word-spacing:0.1px;fill:#000000"
       d="m 42.911377,17.967038 0.471735,1.447736 h 2.895473 L 42.423376,7.4750156 H 39.820704 L 35.754029,19.414774 h 2.91174 l 0.488001,-1.447736 z m -0.878401,-2.749073 h -1.935738 l 0.992269,-2.895473 z"
       id="path35" />
    <path
       style="font-family:'THE BOLD FONT (FREE VERSION)';-inkscape-font-specification:'THE BOLD FONT (FREE VERSION)';letter-spacing:-0.2px;word-spacing:0px;fill:#000000"
       d="m 51.430341,19.414774 h 0.0488 c 0.618134,-0.01627 1.203736,-0.1464 1.756803,-0.390401 0.553068,-0.244 1.024803,-0.569334 1.43147,-0.976002 0.374134,-0.374134 0.699468,-0.862135 0.959735,-1.447736 0.227734,-0.569335 0.341601,-1.154936 0.325334,-1.756804 V 7.4587489 h -2.749072 v 7.4013491 c 0,0.244 -0.0488,0.471734 -0.130134,0.699468 -0.08133,0.211467 -0.211467,0.406667 -0.374134,0.569334 -0.162667,0.162667 -0.357867,0.292801 -0.569334,0.390401 -0.211467,0.0976 -0.439201,0.146401 -0.683202,0.146401 -0.504267,0 -0.927202,-0.162667 -1.268802,-0.504268 -0.357868,-0.357868 -0.536801,-0.780802 -0.536801,-1.252536 V 7.4587489 h -2.749073 v 7.4664161 c 0.01627,0.650668 0.1464,1.236269 0.374134,1.740537 0.227734,0.536801 0.553068,1.024802 0.992269,1.464003 0.439201,0.422934 0.910935,0.732001 1.447736,0.943468 0.536802,0.227734 1.106136,0.341601 1.724271,0.341601 z"
       id="path36" />
    <path
       style="font-family:'THE BOLD FONT (FREE VERSION)';-inkscape-font-specification:'THE BOLD FONT (FREE VERSION)';word-spacing:0px;fill:#000000"
       d="M 67.025322,7.4750156 H 64.276249 V 14.45343 L 60.388508,7.507549 h -2.993073 v 11.907225 h 2.749072 v -6.962148 l 3.904009,6.962148 h 2.976806 z"
       id="path37" />
    <path
       style="font-family:'THE BOLD FONT (FREE VERSION)';-inkscape-font-specification:'THE BOLD FONT (FREE VERSION)';letter-spacing:0.2px;fill:#000000"
       d="m 72.198126,19.642508 c 0.260267,0 0.553067,-0.03253 0.878401,-0.08133 0.309068,-0.06507 0.585602,-0.162667 0.862136,-0.2928 0.732001,-0.341601 1.285069,-0.813335 1.691736,-1.43147 0.406668,-0.634401 0.601868,-1.317603 0.601868,-2.082138 0,-0.764535 -0.1952,-1.464003 -0.601868,-2.098404 -0.406667,-0.618135 -0.959735,-1.089869 -1.691736,-1.43147 -0.260268,-0.113867 -0.455468,-0.178933 -0.569335,-0.227734 -0.260267,-0.08133 -0.455468,-0.1464 -0.569335,-0.178933 -0.244,-0.08133 -0.4392,-0.146401 -0.585601,-0.211467 -0.178933,-0.06507 -0.357867,-0.146401 -0.504267,-0.227734 -0.178934,-0.113867 -0.276534,-0.276534 -0.325334,-0.455468 -0.0488,-0.178934 -0.03253,-0.357867 0.0488,-0.536801 0.06507,-0.130134 0.1464,-0.227734 0.260267,-0.292801 0.162667,-0.06507 0.276534,-0.0976 0.325334,-0.1138665 0.0976,-0.016267 0.1952,-0.016267 0.276534,0 0.01627,0 0.0488,0 0.06507,0 0.01627,0.016267 0.0488,0.016267 0.06507,0.032533 h 0.01627 c 0.113867,0.03253 0.260267,0.0976 0.422934,0.1952 0.146401,0.0976 0.227734,0.276534 0.227734,0.520535 h 2.749073 c 0,-0.390401 -0.06507,-0.7807999 -0.195201,-1.154934 C 75.516533,9.1992859 75.337599,8.8739519 75.093598,8.5648845 74.849598,8.2558172 74.556797,8.0118167 74.215196,7.8003496 73.889862,7.5888825 73.515728,7.4424822 73.092794,7.344882 72.686127,7.2310151 72.263192,7.1984817 71.840258,7.2310151 71.433591,7.2635485 71.059456,7.3611487 70.685322,7.507549 70.311188,7.670216 69.985854,7.8816831 69.70932,8.158217 c -0.309067,0.2765339 -0.553067,0.601868 -0.732001,0.9597354 -0.211467,0.4066675 -0.325334,0.813335 -0.357868,1.2525356 -0.0488,0.422935 0,0.845869 0.113867,1.28507 0.113867,0.422934 0.309068,0.813335 0.553068,1.154935 0.244001,0.341601 0.569335,0.634402 0.959735,0.894669 0.292801,0.178934 0.585602,0.325334 0.878402,0.439201 0.309068,0.113867 0.601868,0.211467 0.845869,0.292801 l 0.439201,0.1464 c 0.178933,0.06507 0.2928,0.113867 0.374134,0.1464 0.162667,0.08133 0.2928,0.162667 0.374134,0.244001 0.113867,0.130133 0.178934,0.227733 0.211467,0.2928 0.03253,0.0488 0.06507,0.146401 0.08133,0.276534 0.01627,0.0488 0.01627,0.130134 0.01627,0.211467 0,0.08133 0,0.162667 -0.01627,0.211467 -0.01627,0.130134 -0.0488,0.211467 -0.08133,0.260268 -0.03253,0.06507 -0.0976,0.162667 -0.211467,0.2928 -0.0976,0.0976 -0.227734,0.178934 -0.374134,0.244001 -0.227734,0.0976 -0.455468,0.1464 -0.666935,0.130133 -0.244,-0.01627 -0.455468,-0.0976 -0.634401,-0.211467 -0.08133,-0.0488 -0.211467,-0.162667 -0.374134,-0.374134 C 70.961856,16.1289 70.896789,15.8849 70.896789,15.559566 h -2.749072 c 0,0.699468 0.162667,1.366403 0.488001,1.968271 0.341601,0.618134 0.797068,1.106135 1.366403,1.480269 0.341601,0.211468 0.699468,0.374135 1.073602,0.488001 0.374134,0.0976 0.748268,0.146401 1.122403,0.146401 z m 10.61071,-0.244001 c 0.780801,0 1.529069,-0.1464 2.261071,-0.439201 0.715735,-0.276534 1.366403,-0.699468 1.968271,-1.301336 L 85.10244,15.705966 c -0.325334,0.325334 -0.683201,0.553068 -1.073602,0.699468 -0.406667,0.162667 -0.813335,0.244001 -1.220002,0.244001 -0.406668,0 -0.813335,-0.08133 -1.203736,-0.244001 -0.390401,-0.1464 -0.748269,-0.374134 -1.073603,-0.699468 -0.2928,-0.2928 -0.520534,-0.650668 -0.699468,-1.057335 -0.162667,-0.374134 -0.244,-0.780802 -0.244,-1.220003 0,-0.439201 0.08133,-0.845868 0.244,-1.236269 0.178934,-0.406668 0.406668,-0.764535 0.699468,-1.057336 0.309068,-0.309067 0.666935,-0.553068 1.073603,-0.715735 0.406667,-0.1464 0.797068,-0.227733 1.203736,-0.227733 0.3904,0 0.797068,0.08133 1.220002,0.227733 0.406668,0.162667 0.764535,0.406668 1.073602,0.715735 L 87.038178,9.1992859 C 86.452577,8.6136846 85.801909,8.1744837 85.069907,7.8816831 84.337905,7.5888825 83.589637,7.4424822 82.825102,7.4424822 c -0.780801,0 -1.52907,0.1464003 -2.261071,0.4392009 -0.732002,0.2928006 -1.398936,0.7320015 -1.984538,1.3176028 -0.569334,0.5693345 -0.992268,1.2037361 -1.285069,1.9194711 -0.309067,0.715734 -0.455468,1.480269 -0.455468,2.309871 0,0.813335 0.146401,1.57787 0.455468,2.277338 0.292801,0.732002 0.715735,1.38267 1.285069,1.952004 0.601868,0.585601 1.252536,1.024802 1.984538,1.301336 0.732001,0.292801 1.48027,0.439201 2.244805,0.439201 z"
       id="path38" />
    <path
       style="font-family:'THE BOLD FONT (FREE VERSION)';-inkscape-font-specification:'THE BOLD FONT (FREE VERSION)';letter-spacing:0.3px;fill:#000000"
       d="M 96.835521,7.4750156 H 94.086449 V 12.159825 H 90.637908 V 7.4750156 H 87.888836 V 19.414774 h 2.749072 v -4.505876 h 3.448541 v 4.505876 h 2.749072 z m 16.648029,-0.081333 h -2.87921 l -1.93574,6.6205464 -1.7568,-6.6205464 h -2.70027 l -1.51281,6.6530804 -2.21227,-6.6530804 h -2.895472 l 3.969072,12.0210914 h 2.73281 l 1.3664,-5.986145 1.57787,5.986145 h 2.71654 z"
       id="path39" />
    <path
       style="font-family:'THE BOLD FONT (FREE VERSION)';-inkscape-font-specification:'THE BOLD FONT (FREE VERSION)';fill:#000000"
       d="m 116.85795,10.224088 h 4.91254 V 7.4750156 l -7.66162,0.016267 V 19.414774 h 7.66162 v -2.749072 h -4.91254 v -1.886938 h 3.98534 v -2.749072 h -3.98534 z"
       id="path40" />
    <path
       style="font-family:'THE BOLD FONT (FREE VERSION)';-inkscape-font-specification:'THE BOLD FONT (FREE VERSION)';letter-spacing:0.3px;fill:#000000"
       d="m 123.39714,19.414774 h 2.74908 V 7.4587489 h -2.74908 z"
       id="path41" />
    <path
       style="font-family:'THE BOLD FONT (FREE VERSION)';-inkscape-font-specification:'THE BOLD FONT (FREE VERSION)';fill:#000000"
       d="m 132.44861,12.159825 v 2.749073 h 2.57014 v 1.154936 c -0.6344,0.455467 -1.33387,0.650668 -2.13093,0.601868 -0.79707,-0.0488 -1.48027,-0.357868 -2.04961,-0.927202 -0.6344,-0.634402 -0.94347,-1.398937 -0.94347,-2.293605 0,-0.894669 0.30907,-1.659204 0.94347,-2.293605 0.6344,-0.634401 1.39894,-0.943469 2.29361,-0.943469 0.89466,0 1.64293,0.309068 2.27733,0.943469 l 1.95201,-1.9520041 c -1.1712,-1.1549358 -2.58641,-1.740537 -4.22934,-1.740537 -1.65921,0 -3.07441,0.5856012 -4.24561,1.740537 -1.15494,1.1712021 -1.74054,2.5864051 -1.74054,4.2456091 0,1.659203 0.5856,3.074406 1.74054,4.229342 1.1712,1.171202 2.5864,1.756804 4.24561,1.756804 0.65066,0 1.28507,-0.0976 1.88693,-0.309068 v 0.292801 h 2.74908 v -7.254949 z"
       id="path42" />
  </g>
</svg>
