<?xml version="1.0" encoding="UTF-8" standalone="no"?>
<!-- Created with Inkscape (http://www.inkscape.org/) -->

<svg
   viewBox="-1 -1 167.10738 166.44946"
   version="1.1"
   id="svg1"
   xml:space="preserve"
   xmlns="http://www.w3.org/2000/svg"
   xmlns:svg="http://www.w3.org/2000/svg"><defs
     id="defs1" /><g
     id="layer1"
     style="display:inline"
     transform="translate(-22.237627,-19.662733)"><g
       id="g5"><path
         style="fill:#000000;stroke-width:0.405649"
         d="m 158.52534,99.580957 c -0.98669,-0.489494 -2.40269,-1.838014 -3.18018,-3.028603 -0.28745,-0.44019 -0.55476,-0.846922 -0.594,-0.90385 -0.0392,-0.05691 -0.14483,0.07234 -0.2346,0.287186 -0.20868,0.499407 -1.07756,1.342555 -1.77438,1.721811 -1.00625,0.547675 -2.06022,0.474736 -3.15849,-0.218568 -0.40094,-0.253106 -0.46335,-0.264123 -0.71045,-0.125429 -0.32871,0.184496 -0.75273,0.790725 -0.83321,1.191235 -0.16322,0.812278 -0.51591,-0.661289 -0.43489,-1.816976 0.10543,-1.50374 0.76115,-2.834632 2.03882,-4.13813 0.22136,-0.225845 0.40248,-0.434384 0.40248,-0.46342 0,-0.02904 -0.16643,-0.198915 -0.36985,-0.377513 -0.62673,-0.550288 -0.94711,-1.228684 -0.94598,-2.003099 8.1e-4,-0.505415 -0.0363,-0.670805 -0.15001,-0.670805 -0.29876,0 -0.95584,0.339443 -1.29786,0.670464 l -0.34881,0.337593 v -0.430882 c 0,-1.033734 0.62122,-2.291147 1.43128,-2.897069 0.71016,-0.531198 1.3925,-0.738411 2.43253,-0.738699 0.78095,-2.14e-4 0.99986,0.04277 1.5207,0.298534 0.33463,0.164329 0.77906,0.474469 0.98764,0.689206 0.48388,0.498171 1.00371,1.471236 1.09673,2.052966 0.0398,0.248576 0.10689,0.473367 0.14923,0.499533 0.0993,0.0614 0.44315,-0.260813 0.82549,-0.773661 0.16631,-0.223089 0.33268,-0.429761 0.36969,-0.459279 0.17743,-0.141457 1.05823,-1.642716 1.37346,-2.340935 0.91433,-2.025197 1.30097,-4.55803 1.07977,-7.07327 -0.11845,-1.346928 -0.45257,-2.990288 -0.64889,-3.191453 -0.062,-0.0636 -0.0995,-0.03168 -0.0995,0.08477 0,0.672727 -1.01547,1.720562 -2.08071,2.147 -0.67012,0.268272 -2.53439,0.517385 -2.53439,0.33866 0,-0.04579 0.18976,-0.289118 0.42168,-0.540729 0.74641,-0.809764 0.8988,-1.23067 0.95047,-2.625371 0.031,-0.836386 -0.0139,-1.632156 -0.13908,-2.468542 -0.35406,-2.364574 -0.21582,-3.717991 0.4943,-4.839149 0.17152,-0.270806 0.31186,-0.531074 0.31186,-0.578377 0,-0.04731 -0.27771,-0.05857 -0.61714,-0.02503 -1.692,0.167176 -2.62154,0.847071 -3.03953,2.223234 -0.4392,1.445971 -0.14761,3.15225 0.7136,4.175743 l 0.25896,0.307758 -0.67718,0.633468 c -1.51773,1.419765 -3.72276,2.000671 -7.42506,1.95611 l -2.03912,-0.02454 -0.0828,0.575004 c -0.0455,0.316251 -0.20841,0.789432 -0.36199,1.051509 -0.2879,0.491265 -0.9486,1.198603 -1.11958,1.198603 -0.0532,0 -0.226,-0.205267 -0.38394,-0.456144 -0.4507,-0.715908 -1.42951,-1.622821 -2.08696,-1.933682 -0.68169,-0.322321 -1.91212,-0.553139 -2.43149,-0.456127 -0.19184,0.03582 -0.34881,0.08103 -0.34881,0.100438 0,0.01938 0.12753,0.26346 0.28341,0.542353 0.34322,0.614085 0.46093,1.734329 0.24967,2.375797 -0.20233,0.614282 -0.90418,1.288049 -1.66002,1.593587 -0.74282,0.30027 -0.79147,0.419717 -0.5482,1.346141 0.0853,0.324587 0.1366,0.608509 0.11416,0.630941 -0.0224,0.02244 -0.28277,-0.114502 -0.57854,-0.304297 -0.57974,-0.372024 -1.59373,-1.409389 -1.79384,-1.835211 -0.44493,-0.946796 -0.50534,-1.183297 -0.55252,-2.163165 l -0.0503,-1.043025 -0.41805,0.357836 c -0.90396,0.773762 -2.58387,0.757467 -3.40779,-0.03307 -0.46778,-0.44881 -0.76092,-1.028871 -0.76092,-1.505662 0,-0.188412 -0.0658,-0.361202 -0.14975,-0.393427 -0.24895,-0.09553 -0.98075,0.154135 -1.28891,0.439728 -0.1593,0.147639 -0.31687,0.268438 -0.35014,0.268438 -0.0333,0 -0.0259,-0.276843 0.0164,-0.615212 0.19709,-1.577469 0.9845,-2.560242 2.52676,-3.153689 0.47254,-0.181828 0.82844,-0.226475 1.82155,-0.22851 0.67884,-0.0012 1.43572,0.04626 1.68194,0.10589 0.36706,0.0889 0.43746,0.08184 0.39099,-0.03927 -0.0312,-0.08122 -0.11188,-0.147912 -0.17934,-0.148191 -0.19392,-8.12e-4 -0.87596,-0.673808 -1.20702,-1.191026 -0.39526,-0.61751 -0.40055,-1.409077 -0.0146,-2.185289 l 0.26485,-0.532637 -0.22693,-0.175825 c -0.41947,-0.324989 -0.69311,-0.422482 -1.18583,-0.422482 -0.26952,0 -0.49003,-0.04215 -0.49003,-0.09365 0,-0.197048 1.00891,-1.011456 1.59111,-1.284389 0.85772,-0.402078 2.05752,-0.396095 2.93005,0.0146 2.09685,0.986996 3.05565,2.855612 2.51246,4.896625 -0.0852,0.319918 -0.13199,0.618597 -0.1041,0.663734 0.0525,0.08503 0.39616,0.05539 1.49572,-0.129004 2.0148,-0.337889 4.06007,-1.427592 5.6483,-3.009358 l 0.39197,-0.390367 -0.20205,-0.843904 c -0.70221,-2.932903 -0.65364,-5.176781 0.14604,-6.746666 0.56061,-1.100549 2.29978,-2.272414 3.96518,-2.671768 1.18385,-0.283877 2.83572,-0.420057 4.24467,-0.349924 0.72311,0.03598 1.31476,0.03334 1.31476,-0.0059 0,-0.244366 -3.00603,-2.815863 -4.23946,-3.626625 -0.99729,-0.655552 -1.19841,-0.767912 -2.57586,-1.439135 -2.42365,-1.181025 -4.28841,-1.646999 -6.65433,-1.662799 -0.82643,-0.0056 -1.67717,0.02693 -1.89054,0.07215 -0.37923,0.08034 -0.38958,0.09603 -0.45993,0.697189 -0.0882,0.754158 -0.40359,1.429989 -0.89773,1.924129 -0.39226,0.392263 -0.96804,0.782679 -1.1553,0.783357 -0.0607,2.24e-4 -0.19608,-0.332243 -0.30081,-0.738808 -0.31672,-1.229419 -1.02349,-2.153916 -2.00368,-2.620904 -0.84646,-0.403271 -3.1125,-0.251336 -3.1125,0.208691 0,0.09211 0.0778,0.331305 0.17276,0.531554 0.26193,0.551953 0.16869,1.801054 -0.17261,2.31289 -0.2905,0.435626 -1.08598,1.021667 -1.56514,1.153044 -0.29505,0.0809 -0.31235,0.116523 -0.29756,0.6127 0.009,0.289738 0.11852,0.763049 0.24418,1.051798 0.12568,0.288748 0.20056,0.552935 0.16641,0.587083 -0.13137,0.131369 -1.09924,-0.491886 -1.72317,-1.109611 -0.468,-0.463352 -0.77883,-0.904812 -1.09749,-1.558721 -0.40841,-0.83807 -0.87912,-2.343039 -0.87912,-2.810739 0,-0.289986 -0.14398,-0.235748 -0.36431,0.137246 -0.33346,0.564513 -0.83038,1.066393 -1.28596,1.29881 -0.5953,0.303705 -1.62445,0.376021 -2.26161,0.158918 -0.3524,-0.120072 -0.5769,-0.140607 -0.76314,-0.06979 -0.28679,0.109038 -0.90603,0.997704 -0.90603,1.300237 0,0.425833 -0.23671,0.285703 -0.51018,-0.302034 -0.25736,-0.553155 -0.29099,-0.754364 -0.29277,-1.751875 -0.002,-1.074961 0.0158,-1.164345 0.38523,-1.937796 0.42199,-0.883584 1.1953,-1.741331 1.88773,-2.093832 0.22452,-0.1143 0.43237,-0.238241 0.46189,-0.275423 0.0714,-0.08988 1.78077,-0.505503 2.24207,-0.54512 l 0.36383,-0.03123 -0.60023,-0.412043 c -0.92817,-0.637164 -1.74139,-1.774708 -1.94624,-2.722429 -0.0452,-0.208986 -0.15932,-0.370917 -0.29087,-0.412674 -0.28082,-0.08913 -0.93678,0.03233 -1.24432,0.230401 -0.31383,0.202114 -0.30848,0.03618 0.0151,-0.468691 0.53458,-0.834058 1.43718,-1.561939 2.44122,-1.968641 0.79408,-0.321668 2.14166,-0.32097 2.80771,0.0017 1.22168,0.591412 2.00718,1.746487 2.00733,2.951843 l 9e-5,0.633717 1.36843,-0.06644 c 3.79309,-0.184172 8.87473,-1.240777 13.38915,-2.783954 0.53127,-0.181605 1.0035,-0.362301 1.04939,-0.401544 0.0459,-0.03923 -0.36463,-0.317955 -0.91229,-0.619364 -0.91892,-0.505759 -1.35577,-0.717677 -2.98128,-1.446286 -0.80288,-0.359872 -3.05048,-1.179599 -4.29312,-1.565756 -1.20796,-0.375375 -4.77383,-1.260139 -5.50187,-1.365121 -0.28112,-0.04052 -0.53126,-0.106268 -0.55586,-0.146066 -0.0245,-0.0398 0.0847,-0.161135 0.24282,-0.269643 0.40302,-0.276526 0.77756,-0.763503 0.94261,-1.22557 0.14861,-0.416037 0.19546,-1.69471 0.0828,-2.258212 -0.0963,-0.481608 -0.79939,-1.227664 -1.45885,-1.548029 -0.8414,-0.408756 -0.82545,-0.413433 -1.09596,0.32159 -0.46491,1.26332 -1.18054,1.784392 -2.46133,1.792188 -0.61427,0.0037 -1.81727,-0.283118 -2.04868,-0.488502 -0.0561,-0.04978 -0.20634,-0.09049 -0.33392,-0.09049 -0.18272,0 -0.28077,0.127556 -0.46195,0.601016 -0.1265,0.33056 -0.2603,0.790456 -0.29732,1.021992 -0.037,0.231539 -0.10179,0.442283 -0.14392,0.468325 -0.14487,0.08953 -0.43184,-1.425379 -0.42957,-2.267681 0.006,-2.219632 1.43901,-4.059637 4.13303,-5.306739 l 0.74812,-0.346311 -0.69763,-0.235478 c -0.9929,-0.335143 -1.49953,-0.618834 -1.9469,-1.090166 -0.56397,-0.594157 -0.73629,-1.002361 -0.73629,-1.744066 0,-0.52836 -0.0377,-0.665685 -0.2076,-0.756623 -0.27201,-0.145576 -1.14302,-0.142553 -1.41857,0.0049 -0.32432,0.173569 -0.34603,0.06173 -0.0868,-0.446563 0.33885,-0.664192 1.19265,-1.520305 1.84507,-1.850057 0.67063,-0.338956 1.6825,-0.545959 2.21966,-0.454083 1.16264,0.198861 1.45163,0.325136 2.0007,0.874197 0.76742,0.767426 1.11008,1.710332 1.17995,3.24686 0.0447,0.980955 0.0834,1.166377 0.28968,1.385992 0.27897,0.296947 0.92882,0.715884 1.00002,0.644681 0.0271,-0.02709 -0.003,-0.426604 -0.0674,-0.887807 -0.20341,-1.462468 0.11439,-2.614429 0.93686,-3.395992 0.42794,-0.406647 1.19445,-0.84317 1.48058,-0.84317 0.18691,0 0.20361,-0.07361 0.17049,-0.751293 -0.014,-0.285978 -0.13522,-0.675988 -0.29725,-0.956175 -0.24112,-0.416954 -0.2496,-0.463323 -0.0713,-0.390108 0.11129,0.04569 0.34723,0.118408 0.52433,0.161578 0.52362,0.127646 1.425,0.627011 1.88985,1.046983 0.74494,0.673 1.16754,1.774051 1.16509,3.035574 -0.002,1.444 -0.39632,2.256027 -1.7285,3.566707 -0.46392,0.456414 -0.84346,0.875852 -0.84346,0.932086 0,0.175419 1.28513,1.74641 2.02796,2.479052 0.95918,0.946013 1.3898,1.293789 2.59757,2.097821 0.90427,0.60199 3.28429,1.871775 3.50835,1.871775 0.0449,0 0.4574,0.144707 0.91672,0.321579 1.63604,0.629984 4.27934,1.158783 5.1772,1.035719 0.2639,-0.03619 0.62318,-0.139897 0.79838,-0.230503 0.41526,-0.214738 0.751,-0.917184 0.751,-1.571223 0,-0.499568 -0.009,-0.514026 -0.40247,-0.62321 -0.22137,-0.06147 -0.53013,-0.11204 -0.68614,-0.112369 -0.35485,-8.11e-4 -0.41173,-0.145555 -0.48951,-1.246221 -0.0863,-1.22039 0.004,-1.629499 0.37018,-1.672283 0.23784,-0.02782 0.31107,-0.115617 0.42444,-0.50891 0.0753,-0.261416 0.11528,-0.497021 0.0887,-0.52357 -0.0265,-0.02653 -0.44859,0.01797 -0.93784,0.09889 -0.48927,0.08094 -1.56575,0.145786 -2.39218,0.144098 -1.49758,-0.0028 -1.50527,-0.0043 -2.30755,-0.385642 -1.51243,-0.718818 -2.26244,-1.712429 -2.33839,-3.097926 -0.0344,-0.62564 -0.005,-0.749001 0.28146,-1.195406 0.29129,-0.453532 1.1427,-1.16581 1.39352,-1.16581 0.0565,0 0.13655,0.179447 0.1777,0.398773 0.20993,1.119019 1.32699,2.373714 2.65436,2.981403 1.00544,0.46031 3.27772,0.788383 3.45653,0.499058 0.10438,-0.168892 -0.487,-1.139625 -0.82671,-1.357029 -0.44404,-0.284165 -0.54011,-0.754181 -0.46537,-2.276937 0.0354,-0.722221 0.0179,-1.229172 -0.0442,-1.267438 -0.0567,-0.03508 -0.10318,-0.34775 -0.10318,-0.694831 V 22.82692 l 0.45614,-0.05552 c 0.25088,-0.03054 0.91497,-0.07789 1.47576,-0.105229 0.56079,-0.02734 1.10637,-0.08379 1.21242,-0.125443 0.10603,-0.04165 0.30607,-0.299118 0.44454,-0.572147 0.45763,-0.902426 0.5039,-0.921102 2.37876,-0.960114 1.29764,-0.02702 1.65265,-0.06546 1.65265,-0.179065 0,-0.318231 0.89211,-1.055389 1.89545,-1.566217 0.57025,-0.290336 1.07003,-0.527879 1.11064,-0.527879 0.0406,0 0.16435,0.205266 0.27501,0.456144 0.27597,0.625651 1.29528,1.634374 1.74177,1.723674 0.38548,0.0771 1.7606,0.604522 1.84612,0.708079 0.0295,0.03574 0.27915,0.233719 0.55476,0.439951 0.27561,0.206232 0.58653,0.544007 0.69094,0.750612 0.48112,0.951984 0.50409,1.086473 0.53163,3.112509 l 0.0269,1.985565 0.46522,0.474568 c 0.57154,0.583006 1.59384,1.062498 2.45786,1.152805 0.35511,0.03711 0.67013,0.107087 0.70004,0.155493 0.0299,0.04841 -0.0398,0.270782 -0.15498,0.494169 -0.51694,1.002841 -1.36872,1.493919 -2.81604,1.623548 l -0.78767,0.07055 0.46863,0.449856 c 0.91652,0.879799 2.75371,1.528654 3.88695,1.372796 0.60181,-0.08277 0.61834,-0.0488 0.35389,0.727339 -0.35708,1.04797 -1.31768,1.695746 -2.62175,1.76798 -1.10774,0.06137 -1.12629,0.07393 -0.7101,0.481074 0.19828,0.193982 0.49931,0.618331 0.66895,0.942996 0.2781,0.532243 0.30799,0.690592 0.30384,1.609917 -0.003,0.844922 -0.0483,1.111558 -0.25951,1.556255 l -0.25491,0.536637 -0.0978,-0.371724 c -0.24208,-0.920178 -0.93222,-1.359361 -2.24887,-1.431096 -0.53754,-0.02929 -0.92626,-0.109814 -1.10941,-0.229817 -0.15507,-0.101603 -0.30522,-0.161455 -0.33368,-0.133 -0.12479,0.124794 0.20877,1.373031 0.55565,2.079327 0.70503,1.43552 2.31198,2.698723 3.99564,3.140949 0.25089,0.06589 0.45614,0.158288 0.45614,0.205315 0,0.04703 -0.21646,0.305075 -0.48102,0.573437 -0.51323,0.520572 -1.14615,0.867564 -1.7993,0.986432 -0.79438,0.144573 -2.18442,-0.258889 -3.07136,-0.891465 l -0.36094,-0.257434 0.0778,0.47209 c 0.10137,0.614773 1.27367,4.593812 1.60944,5.462829 0.0798,0.206609 0.34715,0.931074 0.59404,1.609924 0.41182,1.13227 2.14453,4.783375 2.87784,6.06402 0.169,0.295154 0.61186,1.067914 0.98412,1.717248 0.62146,1.083966 2.3,3.684056 2.45973,3.810139 0.0374,0.02954 0.21326,0.254659 0.39085,0.500324 1.86765,2.583713 5.61847,4.973397 7.80619,4.973397 0.86417,0 1.3459,-0.196609 1.80991,-0.738698 0.5962,-0.696547 0.7704,-1.345897 0.70375,-2.623439 -0.058,-1.111038 -0.0875,-1.23247 -0.64417,-2.648224 -1.3583,-3.454532 -4.3044,-6.621256 -7.72468,-8.303136 -0.45749,-0.224964 -0.83141,-0.441062 -0.83095,-0.480218 0.002,-0.175124 0.66188,-0.361632 1.47492,-0.416907 0.487,-0.0331 0.88545,-0.07526 0.88545,-0.09365 0,-0.01842 -0.34287,-0.506647 -0.76193,-1.084984 -2.2625,-3.122372 -3.36723,-6.095801 -3.501,-9.423096 -0.15816,-3.934524 1.44011,-7.578579 4.26293,-9.719438 0.26564,-0.201461 0.54428,-0.424836 0.61919,-0.496384 0.27901,-0.266463 2.47291,-1.530763 3.40561,-1.962585 1.24454,-0.576191 1.19256,-0.553293 2.57587,-1.134825 3.05045,-1.282387 4.58468,-2.316785 5.20692,-3.510606 0.54967,-1.054552 -0.0842,-2.0122 -1.33179,-2.0122 -0.60168,0 -1.01737,0.2841 -2.12754,1.454035 -0.47692,0.502611 -1.09261,1.102619 -1.36821,1.33336 l -0.50107,0.419521 -0.005,-0.835157 c -0.006,-0.938066 -0.22588,-1.726542 -0.61636,-2.210769 -0.30057,-0.372722 -0.25751,-0.444189 -0.64688,1.073277 -0.54623,2.128816 -1.55692,3.597118 -2.92568,4.25037 -0.6297,0.300529 -0.77797,0.329106 -1.53013,0.294952 -0.73502,-0.03338 -0.89449,-0.07986 -1.35731,-0.395699 -0.44058,-0.30065 -1.11449,-1.045555 -1.11449,-1.231905 0,-0.02925 0.28811,-0.02705 0.64023,0.0049 1.06783,0.09682 1.62677,-0.296692 2.10976,-1.485347 0.31104,-0.765463 0.32916,-1.007582 0.0674,-0.9002 -0.59513,0.244116 -2.91494,0.114839 -3.09243,-0.172331 -0.0318,-0.05139 0.1075,-0.23853 0.30947,-0.415859 0.20989,-0.184286 0.55794,-0.714534 0.81237,-1.237654 0.24485,-0.503381 0.6183,-1.106869 0.8299,-1.341086 l 0.38473,-0.42585 -0.30624,-0.120057 c -0.16843,-0.06603 -0.66846,-0.122391 -1.11119,-0.125248 -0.86526,-0.0056 -1.39251,0.15822 -1.99945,0.621159 -0.19109,0.145749 -0.38009,0.264997 -0.41999,0.264997 -0.0399,0 -0.0523,-0.350155 -0.0274,-0.778127 0.0542,-0.935454 0.33374,-1.572099 0.97467,-2.220225 0.54959,-0.555766 0.87289,-0.731441 1.59983,-0.8693 0.84524,-0.160296 1.66598,0.03658 3.22754,0.774281 l 1.36958,0.646998 1.58193,-0.237568 c 4.1644,-0.625388 7.72653,-0.05324 9.44533,1.517118 1.58897,1.451739 1.98312,3.74945 1.00263,5.844723 -0.353,0.754327 -0.51989,0.983547 -1.21307,1.666165 -0.99956,0.984322 -2.30597,1.67826 -5.23809,2.782363 -1.96272,0.739073 -3.87643,1.574647 -4.6151,2.015068 -0.26564,0.158385 -0.6037,0.347649 -0.75128,0.420584 -0.30691,0.151681 -0.67244,0.377334 -0.7513,0.463811 -0.0295,0.03237 -0.22271,0.17232 -0.42932,0.311019 -0.93677,0.628897 -2.10722,2.094279 -2.65045,3.318328 -0.37401,0.842722 -0.73904,2.778591 -0.55808,2.959551 0.029,0.02909 0.26786,-0.247292 0.53061,-0.614213 0.66673,-0.93111 2.15168,-2.397975 3.10283,-3.065049 1.37085,-0.96142 3.97042,-2.190765 7.28121,-3.443316 1.8274,-0.69135 3.44189,-1.487228 4.26094,-2.100481 0.89996,-0.67383 1.55079,-1.308479 1.95863,-1.909947 0.40959,-0.60404 0.50968,-0.39124 0.50928,1.08283 -2.8e-4,1.021903 -0.0432,1.369222 -0.23012,1.864203 -0.40039,1.059992 -1.1189,1.957595 -2.13047,2.661481 -0.47817,0.332732 -2.04931,1.164062 -2.62953,1.391342 -0.20659,0.08093 -0.52054,0.210694 -0.69762,0.288355 -0.1771,0.07767 -1.16719,0.449049 -2.20023,0.825297 -1.03303,0.37625 -2.28834,0.895363 -2.78958,1.153586 -1.21966,0.628342 -2.84656,1.869895 -3.61458,2.758419 -0.3442,0.398205 -0.65315,0.748153 -0.68656,0.777669 -0.10435,0.09218 -0.69075,1.006399 -0.82613,1.287935 -0.21821,0.453844 -0.35675,1.289269 -0.28207,1.701123 0.0808,0.44571 0.43291,1.196729 0.56107,1.196729 0.047,0 0.19866,-0.205267 0.33711,-0.456144 0.39427,-0.714429 1.46312,-2.07985 2.18276,-2.788404 1.54828,-1.524436 3.33049,-2.478001 5.86114,-3.13598 3.88774,-1.010832 6.39372,-2.424931 7.13462,-4.025997 l 0.22548,-0.487254 0.0316,0.846634 c 0.10413,2.788534 -1.26444,4.801999 -4.08479,6.009664 -0.85707,0.36699 -1.32324,0.523461 -2.91996,0.980112 -0.96254,0.275285 -2.86285,1.308375 -3.70218,2.012661 -1.55949,1.308603 -2.64846,2.882158 -2.76306,3.992634 -0.0511,0.494116 -0.019,0.649707 0.21657,1.051607 0.47418,0.809132 0.51319,0.809014 1.07592,-0.0032 1.08329,-1.56363 2.3808,-2.673189 4.23118,-3.618277 0.90632,-0.46291 1.07517,-0.525643 2.65564,-0.98663 1.28058,-0.373509 2.95634,-0.975172 3.05884,-1.098242 0.0295,-0.03546 0.18824,-0.133811 0.35271,-0.21862 0.47132,-0.243047 1.44601,-1.276718 1.81963,-1.929743 l 0.3409,-0.595832 0.0934,0.427771 c 0.0514,0.235277 0.0735,0.910747 0.0491,1.501051 -0.0378,0.914644 -0.0907,1.167489 -0.3573,1.710685 -0.4216,0.858843 -1.20777,1.693777 -2.08625,2.215677 -0.69599,0.413473 -1.08093,0.574337 -3.11007,1.29971 -1.22248,0.437005 -2.37338,1.026856 -3.21983,1.650204 -0.8071,0.594364 -1.23634,1.03829 -1.82929,1.891888 -0.35904,0.516865 -0.4246,0.695683 -0.4246,1.158054 0,0.339454 0.0835,0.710355 0.22004,0.978116 0.17705,0.347033 1.359,2.275352 2.00589,3.272525 0.0732,0.112795 0.24222,0.392741 0.37565,0.622111 0.13343,0.229365 0.29204,0.495005 0.35246,0.5903 0.0604,0.0953 0.17426,0.288457 0.253,0.429237 l 0.14317,0.255964 0.55195,-0.578062 c 1.30943,-1.371379 2.09385,-1.70131 4.05014,-1.703505 0.84823,-8.1e-4 1.29061,0.05159 1.74199,0.206889 1.01557,0.349406 1.04844,0.392664 0.43642,0.574415 -1.47106,0.436856 -2.3513,1.150983 -3.21753,2.610336 -0.61426,1.034876 -0.85996,1.755072 -1.21974,3.575346 -0.47461,2.401343 -0.83005,3.26105 -1.72479,4.171869 -0.24909,0.253551 -0.41885,0.495037 -0.37725,0.536637 0.0416,0.0416 0.47006,0.07536 0.95215,0.07502 0.79039,-4.06e-4 0.93714,-0.03493 1.49364,-0.349729 l 0.61713,-0.349114 v 0.31276 c 0,0.89901 -1.34583,2.390251 -2.79052,3.092003 -1.12112,0.544579 -1.77357,0.684475 -3.1923,0.684475 -0.60545,0 -1.10081,0.01473 -1.10081,0.0327 0,0.01797 0.0773,0.187567 0.17168,0.37685 0.24194,0.484975 0.31029,1.489839 0.14771,2.171495 -0.17167,0.71977 -0.8385,1.785787 -1.31896,2.108529 -0.68039,0.457044 -1.53708,0.5696 -2.52155,0.331297 -0.69562,-0.168381 -0.74979,-0.256925 -0.29059,-0.474836 0.60492,-0.28705 0.97014,-0.917444 0.95596,-1.650021 -0.0149,-0.765933 -0.27708,-1.256468 -1.15136,-2.153665 -0.72509,-0.744081 -0.92997,-1.157697 -0.92997,-1.877354 0,-0.411863 -0.0341,-0.467432 -0.40159,-0.654782 -0.75645,-0.385625 -2.65702,-1.562773 -3.24652,-2.010779 -0.83664,-0.635813 -1.23359,-0.982481 -2.14102,-1.869793 -0.52634,-0.514678 -0.83454,-0.744514 -0.90453,-0.674532 -0.17142,0.171423 -0.22294,3.546735 -0.0685,4.490805 0.45912,2.807254 1.4318,5.540114 2.88306,8.100251 0.23739,0.418808 0.28958,0.676824 0.1495,0.739088 -0.0443,0.01967 -0.1977,0.253113 -0.34094,0.518751 -0.44854,0.831819 -2.1975,3.414328 -2.98,4.400246 -1.35586,1.708323 -3.10377,3.830935 -3.35867,4.078656 -0.31539,0.306508 -2.04079,2.243553 -2.04079,2.291123 0,0.03459 0.19033,0.357313 0.42293,0.717213 0.57542,0.89027 0.79935,1.601336 0.72652,2.306993 -0.0737,0.713622 -0.31097,1.176942 -0.86893,1.696351 -0.43459,0.404575 -0.4415,0.42257 -0.44104,1.148876 3e-4,0.445209 0.0536,0.79089 0.13416,0.871553 0.1712,0.171186 0.17098,0.305682 -4e-4,0.304435 -0.0738,-3.98e-4 -0.4964,-0.180674 -0.93912,-0.400304 z m -6.86898,-67.760781 c 0.51324,-0.117898 1.07327,-0.560707 1.07327,-0.848642 0,-0.190415 -0.63898,-0.447089 -1.58836,-0.638028 -0.62511,-0.125723 -1.95346,-0.155659 -1.95346,-0.04402 0,0.09196 0.49177,0.736086 0.95005,1.2444 0.39824,0.441727 0.64186,0.487658 1.5185,0.286295 z m -3.07551,-0.701017 c 0.0963,-0.390433 0.15094,-0.749108 0.1213,-0.797056 -0.0296,-0.04794 -0.19008,-0.04811 -0.35657,-3.6e-4 -0.16647,0.04774 -0.60059,0.121386 -0.9647,0.163646 -0.36409,0.04226 -0.68771,0.118441 -0.71913,0.169294 -0.0314,0.05086 0.10147,0.335021 0.29533,0.631476 0.34663,0.530062 0.3616,0.539051 0.90054,0.540945 l 0.54805,0.002 z m -0.54681,-2.150595 c 0.50441,-0.04763 0.72446,-0.112609 0.72446,-0.213895 0,-0.08001 -0.0406,-0.14547 -0.0901,-0.14547 -0.0496,0 -0.14512,-0.120745 -0.21235,-0.26832 -0.11071,-0.242967 -0.18333,-0.26832 -0.76852,-0.26832 -0.39691,0 -0.64628,0.04537 -0.64628,0.117593 0,0.06467 -0.0951,0.251243 -0.21148,0.414594 -0.32645,0.458459 -0.20056,0.496493 1.20427,0.363818 z m 4.67855,-0.309263 c 0.0749,-0.06935 -0.0966,-0.434563 -0.33112,-0.705005 -0.35168,-0.405579 -0.89105,-0.649022 -1.57431,-0.71055 -0.49538,-0.0446 -0.62921,-0.01923 -0.76908,0.145916 -0.20067,0.236915 -0.65212,1.320642 -0.5912,1.419242 0.0404,0.0654 3.18933,-0.07885 3.26571,-0.149603 z m -1.00257,-4.327593 c 0.31241,-0.192343 1.1178,-1.563122 0.99219,-1.688731 -0.0925,-0.09259 -2.12556,0.283979 -2.65555,0.491877 -0.26576,0.104248 -0.49916,0.269573 -0.51867,0.367392 -0.0195,0.09785 0.15583,0.369157 0.38985,0.603171 0.37924,0.379241 0.48193,0.425279 0.94776,0.424921 0.31961,-2.43e-4 0.64743,-0.07735 0.84442,-0.19863 z"
         id="path1" /><g
         id="g2"
         transform="matrix(0.12946505,0,0,0.12946505,21.213045,18.641429)"><g
           transform="translate(664.88608,1117.481)"
           id="g1"><path
             d="M 165.81833,104.54021 C 154.57541,149.63552 108.90138,177.07992 63.800805,165.83437 18.718645,154.59146 -8.7257575,108.91479 2.5224229,63.822112 13.760081,18.721539 59.434112,-8.7254945 104.52153,2.5174248 149.61948,13.760344 177.06125,59.442267 165.81833,104.54021 Z"
             id="Path"
             fill="#f7931a" /><path
             d="M 121.27017,72.184593 C 122.94582,60.983762 114.41762,54.96246 102.75644,50.945629 l 3.78271,-15.172943 -9.235813,-2.301721 -3.682754,14.773102 C 91.192597,47.639043 88.698847,47.068216 86.22088,46.50265 L 89.929939,31.632219 80.699381,29.330498 76.914037,44.49818 c -2.009731,-0.457713 -3.982635,-0.910166 -5.897666,-1.386293 l 0.01052,-0.04735 -12.737065,-3.18032 -2.456922,9.864517 c 0,0 6.852551,1.570431 6.707871,1.667761 3.740625,0.933841 4.416674,3.409178 4.30356,5.371559 -10.364319,41.56513 0,0 -10.364319,41.56513 -0.457714,1.136393 -1.617781,2.840976 -4.232536,2.193866 0.09207,0.13416 -6.713133,-1.67565 -6.713133,-1.67565 l -4.585027,10.57213 12.018928,2.99619 c 2.235957,0.5603 4.427195,1.14691 6.584236,1.69932 l -3.822172,15.34656 9.225297,2.30172 3.785344,-15.18346 c 2.520056,0.68394 4.966456,1.31527 7.360246,1.90977 l -3.772192,15.11244 9.235819,2.30172 3.822172,-15.31762 c 15.749032,2.9804 27.591712,1.77824 32.576582,-12.46612 4.01683,-11.469149 -0.19992,-18.084952 -8.48611,-22.399034 6.03445,-1.391555 10.58002,-5.361037 11.7927,-13.560423 z m -21.10218,29.590917 c -2.854131,11.46915 -22.164911,5.26897 -28.425591,3.71432 l 5.071677,-20.331424 c 6.260681,1.562539 26.336944,4.656052 23.353914,16.617104 z m 2.85677,-29.756641 c -2.60424,10.432713 -18.676823,5.132179 -23.890549,3.832693 l 4.59818,-18.440071 c 5.213726,1.299486 22.004449,3.724842 19.292369,14.607378 z"
             fill="#ffffff"
             id="path1-7" /></g><path
           d="M 203.13768,300.39904 V 231.36553 H 79.068373 V 183.98158 H 179.72062 v -69.0335 H 79.068373 V 69.606545 H 203.13768 V 0.5730392 L 9.63886,0.9815215 V 300.39904 Z m 105.17133,0 V 0.164557 H 238.8795 V 300.39904 Z m 110.51207,0 V 125.56862 l 98.59812,174.83042 h 75.18107 V 0.5730392 H 523.17076 V 175.81194 L 424.98346,1.3900038 H 349.39157 V 300.39904 Z M 130.01074,628.45476 c 15.61137,-0.27232 30.33261,-3.4721 44.16374,-9.59934 13.83113,-6.12723 25.88201,-14.36496 36.15265,-24.71317 10.27063,-10.34822 18.3502,-22.46653 24.2387,-36.35493 5.8885,-13.8884 8.69581,-28.59376 8.42192,-44.11608 V 328.22028 h -69.42951 v 185.85944 c 0,6.26339 -1.09553,12.11831 -3.2866,17.56474 -2.19107,5.44643 -5.34073,10.21205 -9.44899,14.29688 -4.10825,4.08482 -8.90122,7.35268 -14.37889,9.80357 -5.47768,2.45089 -11.22923,3.67634 -17.25467,3.67634 -12.32477,0 -23.00623,-4.22098 -32.044394,-12.66295 -9.038161,-8.98661 -13.557242,-19.47099 -13.557242,-31.45314 V 328.22028 H 14.157941 v 187.49337 c 0.273884,15.52232 3.355075,30.09153 9.243574,43.7076 5.888499,13.61608 14.310423,25.87055 25.26577,36.76341 10.681463,10.34822 22.869287,18.31362 36.563471,23.89621 13.694184,5.58259 28.210024,8.37389 43.547504,8.37389 z m 223.8999,0 V 453.62434 l 98.59813,174.83042 h 75.18107 v -299.826 h -69.42951 v 175.2389 l -98.1873,-174.42194 h -75.5919 v 299.00904 z m 271.9665,0 c 20.54127,-1.08929 39.57619,-5.65067 57.10475,-13.68416 17.52855,-8.03348 32.79757,-18.7221 45.80704,-32.06586 13.00948,-13.34375 23.21164,-28.798 30.6065,-46.36274 7.39486,-17.56473 11.09229,-36.423 11.09229,-56.57479 0,-20.42412 -3.7659,-39.62279 -11.2977,-57.59601 -7.5318,-17.97322 -17.80244,-33.76786 -30.81191,-47.38394 -13.00948,-13.61608 -28.34696,-24.6451 -46.01246,-33.08707 -17.6655,-8.44196 -36.495,-13.20759 -56.48851,-14.29688 v -0.40848 h -69.42951 v 301.45993 z m 0,-69.44199 V 396.43682 c 10.68146,1.08929 20.54127,4.01674 29.57944,8.78237 9.03816,4.76563 16.98078,10.89286 23.82788,18.3817 6.84709,7.48884 12.18782,16.06697 16.02219,25.73439 3.83437,9.66741 5.75156,19.81139 5.75156,30.43193 0,10.34821 -1.91719,20.15179 -5.75156,29.41072 -3.83437,9.25893 -9.10663,17.3605 -15.81678,24.3047 -6.71015,6.9442 -14.65278,12.66295 -23.82788,17.15625 -9.1751,4.49331 -19.10339,7.2846 -29.78485,8.37389 z M 240.93363,956.51048 V 887.47697 H 116.4535 L 242.57693,654.64207 16.622894,654.23359 v 69.44199 H 126.31331 L 0.189873,956.51048 Z m 179.11992,0 34.50935,-150.32148 39.85007,150.32148 h 68.60787 L 652.16997,654.64207 H 579.45385 L 530.56562,820.89436 486.19646,654.64207 H 417.99943 L 379.79265,821.71133 323.92038,654.64207 h -73.12694 l 100.24143,301.86841 z m 293.74025,0 12.32477,-36.35492 h 94.90069 l 11.91394,36.35492 h 73.12694 l -97.36565,-299.826 h -65.73208 l -102.70638,299.826 z M 798.83468,851.12205 H 749.94645 L 775.0068,778.4122 Z M 996.03093,956.51048 V 781.68006 l 98.59817,174.83042 h 75.181 v -299.826 h -69.4295 v 175.2389 l -98.1873,-174.42193 h -75.59188 v 299.00903 z m -755.0973,328.05572 v -69.0335 H 116.4535 L 242.57693,982.69779 16.622894,982.28931 v 69.44199 H 126.31331 L 0.189873,1284.5662 Z m 112.15536,0 V 984.33172 h -69.42951 v 300.23448 z m 168.84929,0.4085 c 7.94263,0 15.95373,-0.6127 24.0333,-1.8382 8.07956,-1.2254 15.95372,-3.1998 23.62246,-5.923 v 7.3527 h 69.84034 V 1116.68 H 509.20269 v 69.0335 h 60.39135 v 15.1138 c -7.94262,5.7188 -16.56996,9.8036 -25.882,12.2545 -9.31205,2.4509 -18.69257,3.3359 -28.14155,2.6551 -9.44899,-0.6808 -18.62409,-2.9955 -27.52531,-6.9442 -8.90122,-3.9486 -16.91232,-9.4631 -24.0333,-16.5435 -7.94262,-7.8973 -13.96806,-16.8839 -18.07632,-26.9598 -4.10825,-10.0759 -6.16238,-20.288 -6.16238,-30.6362 0,-10.3482 2.05413,-20.5603 6.16238,-30.6362 4.10826,-10.0759 10.1337,-19.0625 18.07632,-26.9598 7.94263,-7.8973 16.98079,-13.8203 27.11449,-17.769 10.13369,-3.9486 20.40433,-5.923 30.81191,-5.923 10.40758,0 20.67822,1.9744 30.81192,5.923 10.13369,3.9487 19.17185,9.8717 27.11448,17.769 l 49.29906,-49.0179 c -14.78972,-14.7053 -31.49662,-25.7344 -50.12071,-33.08704 -18.62409,-7.35268 -37.65901,-11.02902 -57.10475,-11.02902 -19.44574,0 -38.48065,3.67634 -57.10474,11.02902 -18.62409,7.35264 -35.331,18.38174 -50.12072,33.08704 -14.78972,14.7054 -25.81353,31.317 -33.07145,49.8349 -7.25792,18.5178 -10.88688,37.4442 -10.88688,56.779 0,19.3348 3.62896,38.1931 10.88688,56.5748 7.25792,18.3817 18.28173,34.9252 33.07145,49.6306 14.78972,14.7054 31.49663,25.7344 50.12072,33.0871 18.62409,7.3526 37.659,11.029 57.10474,11.029 z"
           id="path2" /></g></g></g><style
     id="style1">#text{fill:#000}@media (prefers-color-scheme:dark){#text{fill:#fff}}</style></svg>
